<svg xmlns="http://www.w3.org/2000/svg" xmlns:xlink="http://www.w3.org/1999/xlink" width="576" height="384" version="1.1" viewBox="0 0 432 288"><defs><style type="text/css">*{stroke-linecap:butt;stroke-linejoin:round}</style></defs><g id="figure_1"><g id="patch_1"><path fill="#fff" d="M 0 288 L 432 288 L 432 0 L 0 0 z"/></g><g id="axes_1"><g id="patch_2"><path fill="#fff" d="M 54 252 L 388.8 252 L 388.8 34.56 L 54 34.56 z"/></g><g id="matplotlib.axis_1"><g id="xtick_1"><g id="line2d_1"><defs><path id="m7010314c67" stroke="#000" stroke-width=".8" d="M 0 0 L 0 3.5"/></defs><g><use x="68.912" y="252" stroke="#000" stroke-width=".8" xlink:href="#m7010314c67"/></g></g><g id="text_1"><defs><path id="DejaVuSans-48" d="M 31.78125 66.40625 Q 24.171875 66.40625 20.328125 58.90625 Q 16.5 51.421875 16.5 36.375 Q 16.5 21.390625 20.328125 13.890625 Q 24.171875 6.390625 31.78125 6.390625 Q 39.453125 6.390625 43.28125 13.890625 Q 47.125 21.390625 47.125 36.375 Q 47.125 51.421875 43.28125 58.90625 Q 39.453125 66.40625 31.78125 66.40625 z M 31.78125 74.21875 Q 44.046875 74.21875 50.515625 64.515625 Q 56.984375 54.828125 56.984375 36.375 Q 56.984375 17.96875 50.515625 8.265625 Q 44.046875 -1.421875 31.78125 -1.421875 Q 19.53125 -1.421875 13.0625 8.265625 Q 6.59375 17.96875 6.59375 36.375 Q 6.59375 54.828125 13.0625 64.515625 Q 19.53125 74.21875 31.78125 74.21875 z"/></defs><g transform="translate(65.731039 266.598437)scale(0.1 -0.1)"><use xlink:href="#DejaVuSans-48"/></g></g></g><g id="xtick_2"><g id="line2d_2"><g><use x="130.091" y="252" stroke="#000" stroke-width=".8" xlink:href="#m7010314c67"/></g></g><g id="text_2"><defs><path id="DejaVuSans-50" d="M 19.1875 8.296875 L 53.609375 8.296875 L 53.609375 0 L 7.328125 0 L 7.328125 8.296875 Q 12.9375 14.109375 22.625 23.890625 Q 32.328125 33.6875 34.8125 36.53125 Q 39.546875 41.84375 41.421875 45.53125 Q 43.3125 49.21875 43.3125 52.78125 Q 43.3125 58.59375 39.234375 62.25 Q 35.15625 65.921875 28.609375 65.921875 Q 23.96875 65.921875 18.8125 64.3125 Q 13.671875 62.703125 7.8125 59.421875 L 7.8125 69.390625 Q 13.765625 71.78125 18.9375 73 Q 24.125 74.21875 28.421875 74.21875 Q 39.75 74.21875 46.484375 68.546875 Q 53.21875 62.890625 53.21875 53.421875 Q 53.21875 48.921875 51.53125 44.890625 Q 49.859375 40.875 45.40625 35.40625 Q 44.1875 33.984375 37.640625 27.21875 Q 31.109375 20.453125 19.1875 8.296875 z"/></defs><g transform="translate(120.547159 266.598437)scale(0.1 -0.1)"><use xlink:href="#DejaVuSans-50"/><use x="63.623" xlink:href="#DejaVuSans-48"/><use x="127.246" xlink:href="#DejaVuSans-48"/></g></g></g><g id="xtick_3"><g id="line2d_3"><g><use x="191.27" y="252" stroke="#000" stroke-width=".8" xlink:href="#m7010314c67"/></g></g><g id="text_3"><defs><path id="DejaVuSans-52" d="M 37.796875 64.3125 L 12.890625 25.390625 L 37.796875 25.390625 z M 35.203125 72.90625 L 47.609375 72.90625 L 47.609375 25.390625 L 58.015625 25.390625 L 58.015625 17.1875 L 47.609375 17.1875 L 47.609375 0 L 37.796875 0 L 37.796875 17.1875 L 4.890625 17.1875 L 4.890625 26.703125 z"/></defs><g transform="translate(181.725779 266.598437)scale(0.1 -0.1)"><use xlink:href="#DejaVuSans-52"/><use x="63.623" xlink:href="#DejaVuSans-48"/><use x="127.246" xlink:href="#DejaVuSans-48"/></g></g></g><g id="xtick_4"><g id="line2d_4"><g><use x="252.448" y="252" stroke="#000" stroke-width=".8" xlink:href="#m7010314c67"/></g></g><g id="text_4"><defs><path id="DejaVuSans-54" d="M 33.015625 40.375 Q 26.375 40.375 22.484375 35.828125 Q 18.609375 31.296875 18.609375 23.390625 Q 18.609375 15.53125 22.484375 10.953125 Q 26.375 6.390625 33.015625 6.390625 Q 39.65625 6.390625 43.53125 10.953125 Q 47.40625 15.53125 47.40625 23.390625 Q 47.40625 31.296875 43.53125 35.828125 Q 39.65625 40.375 33.015625 40.375 z M 52.59375 71.296875 L 52.59375 62.3125 Q 48.875 64.0625 45.09375 64.984375 Q 41.3125 65.921875 37.59375 65.921875 Q 27.828125 65.921875 22.671875 59.328125 Q 17.53125 52.734375 16.796875 39.40625 Q 19.671875 43.65625 24.015625 45.921875 Q 28.375 48.1875 33.59375 48.1875 Q 44.578125 48.1875 50.953125 41.515625 Q 57.328125 34.859375 57.328125 23.390625 Q 57.328125 12.15625 50.6875 5.359375 Q 44.046875 -1.421875 33.015625 -1.421875 Q 20.359375 -1.421875 13.671875 8.265625 Q 6.984375 17.96875 6.984375 36.375 Q 6.984375 53.65625 15.1875 63.9375 Q 23.390625 74.21875 37.203125 74.21875 Q 40.921875 74.21875 44.703125 73.484375 Q 48.484375 72.75 52.59375 71.296875 z"/></defs><g transform="translate(242.9044 266.598437)scale(0.1 -0.1)"><use xlink:href="#DejaVuSans-54"/><use x="63.623" xlink:href="#DejaVuSans-48"/><use x="127.246" xlink:href="#DejaVuSans-48"/></g></g></g><g id="xtick_5"><g id="line2d_5"><g><use x="313.627" y="252" stroke="#000" stroke-width=".8" xlink:href="#m7010314c67"/></g></g><g id="text_5"><defs><path id="DejaVuSans-56" d="M 31.78125 34.625 Q 24.75 34.625 20.71875 30.859375 Q 16.703125 27.09375 16.703125 20.515625 Q 16.703125 13.921875 20.71875 10.15625 Q 24.75 6.390625 31.78125 6.390625 Q 38.8125 6.390625 42.859375 10.171875 Q 46.921875 13.96875 46.921875 20.515625 Q 46.921875 27.09375 42.890625 30.859375 Q 38.875 34.625 31.78125 34.625 z M 21.921875 38.8125 Q 15.578125 40.375 12.03125 44.71875 Q 8.5 49.078125 8.5 55.328125 Q 8.5 64.0625 14.71875 69.140625 Q 20.953125 74.21875 31.78125 74.21875 Q 42.671875 74.21875 48.875 69.140625 Q 55.078125 64.0625 55.078125 55.328125 Q 55.078125 49.078125 51.53125 44.71875 Q 48 40.375 41.703125 38.8125 Q 48.828125 37.15625 52.796875 32.3125 Q 56.78125 27.484375 56.78125 20.515625 Q 56.78125 9.90625 50.3125 4.234375 Q 43.84375 -1.421875 31.78125 -1.421875 Q 19.734375 -1.421875 13.25 4.234375 Q 6.78125 9.90625 6.78125 20.515625 Q 6.78125 27.484375 10.78125 32.3125 Q 14.796875 37.15625 21.921875 38.8125 z M 18.3125 54.390625 Q 18.3125 48.734375 21.84375 45.5625 Q 25.390625 42.390625 31.78125 42.390625 Q 38.140625 42.390625 41.71875 45.5625 Q 45.3125 48.734375 45.3125 54.390625 Q 45.3125 60.0625 41.71875 63.234375 Q 38.140625 66.40625 31.78125 66.40625 Q 25.390625 66.40625 21.84375 63.234375 Q 18.3125 60.0625 18.3125 54.390625 z"/></defs><g transform="translate(304.08302 266.598437)scale(0.1 -0.1)"><use xlink:href="#DejaVuSans-56"/><use x="63.623" xlink:href="#DejaVuSans-48"/><use x="127.246" xlink:href="#DejaVuSans-48"/></g></g></g><g id="xtick_6"><g id="line2d_6"><g><use x="374.805" y="252" stroke="#000" stroke-width=".8" xlink:href="#m7010314c67"/></g></g><g id="text_6"><defs><path id="DejaVuSans-49" d="M 12.40625 8.296875 L 28.515625 8.296875 L 28.515625 63.921875 L 10.984375 60.40625 L 10.984375 69.390625 L 28.421875 72.90625 L 38.28125 72.90625 L 38.28125 8.296875 L 54.390625 8.296875 L 54.390625 0 L 12.40625 0 z"/></defs><g transform="translate(362.080391 266.598437)scale(0.1 -0.1)"><use xlink:href="#DejaVuSans-49"/><use x="63.623" xlink:href="#DejaVuSans-48"/><use x="127.246" xlink:href="#DejaVuSans-48"/><use x="190.869" xlink:href="#DejaVuSans-48"/></g></g></g><g id="text_7"><defs><path id="DejaVuSans-66" d="M 19.671875 34.8125 L 19.671875 8.109375 L 35.5 8.109375 Q 43.453125 8.109375 47.28125 11.40625 Q 51.125 14.703125 51.125 21.484375 Q 51.125 28.328125 47.28125 31.5625 Q 43.453125 34.8125 35.5 34.8125 z M 19.671875 64.796875 L 19.671875 42.828125 L 34.28125 42.828125 Q 41.5 42.828125 45.03125 45.53125 Q 48.578125 48.25 48.578125 53.8125 Q 48.578125 59.328125 45.03125 62.0625 Q 41.5 64.796875 34.28125 64.796875 z M 9.8125 72.90625 L 35.015625 72.90625 Q 46.296875 72.90625 52.390625 68.21875 Q 58.5 63.53125 58.5 54.890625 Q 58.5 48.1875 55.375 44.234375 Q 52.25 40.28125 46.1875 39.3125 Q 53.46875 37.75 57.5 32.78125 Q 61.53125 27.828125 61.53125 20.40625 Q 61.53125 10.640625 54.890625 5.3125 Q 48.25 0 35.984375 0 L 9.8125 0 z"/><path id="DejaVuSans-111" d="M 30.609375 48.390625 Q 23.390625 48.390625 19.1875 42.75 Q 14.984375 37.109375 14.984375 27.296875 Q 14.984375 17.484375 19.15625 11.84375 Q 23.34375 6.203125 30.609375 6.203125 Q 37.796875 6.203125 41.984375 11.859375 Q 46.1875 17.53125 46.1875 27.296875 Q 46.1875 37.015625 41.984375 42.703125 Q 37.796875 48.390625 30.609375 48.390625 z M 30.609375 56 Q 42.328125 56 49.015625 48.375 Q 55.71875 40.765625 55.71875 27.296875 Q 55.71875 13.875 49.015625 6.21875 Q 42.328125 -1.421875 30.609375 -1.421875 Q 18.84375 -1.421875 12.171875 6.21875 Q 5.515625 13.875 5.515625 27.296875 Q 5.515625 40.765625 12.171875 48.375 Q 18.84375 56 30.609375 56 z"/><path id="DejaVuSans-115" d="M 44.28125 53.078125 L 44.28125 44.578125 Q 40.484375 46.53125 36.375 47.5 Q 32.28125 48.484375 27.875 48.484375 Q 21.1875 48.484375 17.84375 46.4375 Q 14.5 44.390625 14.5 40.28125 Q 14.5 37.15625 16.890625 35.375 Q 19.28125 33.59375 26.515625 31.984375 L 29.59375 31.296875 Q 39.15625 29.25 43.1875 25.515625 Q 47.21875 21.78125 47.21875 15.09375 Q 47.21875 7.46875 41.1875 3.015625 Q 35.15625 -1.421875 24.609375 -1.421875 Q 20.21875 -1.421875 15.453125 -0.5625 Q 10.6875 0.296875 5.421875 2 L 5.421875 11.28125 Q 10.40625 8.6875 15.234375 7.390625 Q 20.0625 6.109375 24.8125 6.109375 Q 31.15625 6.109375 34.5625 8.28125 Q 37.984375 10.453125 37.984375 14.40625 Q 37.984375 18.0625 35.515625 20.015625 Q 33.0625 21.96875 24.703125 23.78125 L 21.578125 24.515625 Q 13.234375 26.265625 9.515625 29.90625 Q 5.8125 33.546875 5.8125 39.890625 Q 5.8125 47.609375 11.28125 51.796875 Q 16.75 56 26.8125 56 Q 31.78125 56 36.171875 55.265625 Q 40.578125 54.546875 44.28125 53.078125 z"/><path id="DejaVuSans-116" d="M 18.3125 70.21875 L 18.3125 54.6875 L 36.8125 54.6875 L 36.8125 47.703125 L 18.3125 47.703125 L 18.3125 18.015625 Q 18.3125 11.328125 20.140625 9.421875 Q 21.96875 7.515625 27.59375 7.515625 L 36.8125 7.515625 L 36.8125 0 L 27.59375 0 Q 17.1875 0 13.234375 3.875 Q 9.28125 7.765625 9.28125 18.015625 L 9.28125 47.703125 L 2.6875 47.703125 L 2.6875 54.6875 L 9.28125 54.6875 L 9.28125 70.21875 z"/><path id="DejaVuSans-105" d="M 9.421875 54.6875 L 18.40625 54.6875 L 18.40625 0 L 9.421875 0 z M 9.421875 75.984375 L 18.40625 75.984375 L 18.40625 64.59375 L 9.421875 64.59375 z"/><path id="DejaVuSans-110" d="M 54.890625 33.015625 L 54.890625 0 L 45.90625 0 L 45.90625 32.71875 Q 45.90625 40.484375 42.875 44.328125 Q 39.84375 48.1875 33.796875 48.1875 Q 26.515625 48.1875 22.3125 43.546875 Q 18.109375 38.921875 18.109375 30.90625 L 18.109375 0 L 9.078125 0 L 9.078125 54.6875 L 18.109375 54.6875 L 18.109375 46.1875 Q 21.34375 51.125 25.703125 53.5625 Q 30.078125 56 35.796875 56 Q 45.21875 56 50.046875 50.171875 Q 54.890625 44.34375 54.890625 33.015625 z"/><path id="DejaVuSans-103" d="M 45.40625 27.984375 Q 45.40625 37.75 41.375 43.109375 Q 37.359375 48.484375 30.078125 48.484375 Q 22.859375 48.484375 18.828125 43.109375 Q 14.796875 37.75 14.796875 27.984375 Q 14.796875 18.265625 18.828125 12.890625 Q 22.859375 7.515625 30.078125 7.515625 Q 37.359375 7.515625 41.375 12.890625 Q 45.40625 18.265625 45.40625 27.984375 z M 54.390625 6.78125 Q 54.390625 -7.171875 48.1875 -13.984375 Q 42 -20.796875 29.203125 -20.796875 Q 24.46875 -20.796875 20.265625 -20.09375 Q 16.0625 -19.390625 12.109375 -17.921875 L 12.109375 -9.1875 Q 16.0625 -11.328125 19.921875 -12.34375 Q 23.78125 -13.375 27.78125 -13.375 Q 36.625 -13.375 41.015625 -8.765625 Q 45.40625 -4.15625 45.40625 5.171875 L 45.40625 9.625 Q 42.625 4.78125 38.28125 2.390625 Q 33.9375 0 27.875 0 Q 17.828125 0 11.671875 7.65625 Q 5.515625 15.328125 5.515625 27.984375 Q 5.515625 40.671875 11.671875 48.328125 Q 17.828125 56 27.875 56 Q 33.9375 56 38.28125 53.609375 Q 42.625 51.21875 45.40625 46.390625 L 45.40625 54.6875 L 54.390625 54.6875 z"/><path id="DejaVuSans-32"/><path id="DejaVuSans-73" d="M 9.8125 72.90625 L 19.671875 72.90625 L 19.671875 0 L 9.8125 0 z"/><path id="DejaVuSans-101" d="M 56.203125 29.59375 L 56.203125 25.203125 L 14.890625 25.203125 Q 15.484375 15.921875 20.484375 11.0625 Q 25.484375 6.203125 34.421875 6.203125 Q 39.59375 6.203125 44.453125 7.46875 Q 49.3125 8.734375 54.109375 11.28125 L 54.109375 2.78125 Q 49.265625 0.734375 44.1875 -0.34375 Q 39.109375 -1.421875 33.890625 -1.421875 Q 20.796875 -1.421875 13.15625 6.1875 Q 5.515625 13.8125 5.515625 26.8125 Q 5.515625 40.234375 12.765625 48.109375 Q 20.015625 56 32.328125 56 Q 43.359375 56 49.78125 48.890625 Q 56.203125 41.796875 56.203125 29.59375 z M 47.21875 32.234375 Q 47.125 39.59375 43.09375 43.984375 Q 39.0625 48.390625 32.421875 48.390625 Q 24.90625 48.390625 20.390625 44.140625 Q 15.875 39.890625 15.1875 32.171875 z"/><path id="DejaVuSans-114" d="M 41.109375 46.296875 Q 39.59375 47.171875 37.8125 47.578125 Q 36.03125 48 33.890625 48 Q 26.265625 48 22.1875 43.046875 Q 18.109375 38.09375 18.109375 28.8125 L 18.109375 0 L 9.078125 0 L 9.078125 54.6875 L 18.109375 54.6875 L 18.109375 46.1875 Q 20.953125 51.171875 25.484375 53.578125 Q 30.03125 56 36.53125 56 Q 37.453125 56 38.578125 55.875 Q 39.703125 55.765625 41.0625 55.515625 z"/><path id="DejaVuSans-97" d="M 34.28125 27.484375 Q 23.390625 27.484375 19.1875 25 Q 14.984375 22.515625 14.984375 16.5 Q 14.984375 11.71875 18.140625 8.90625 Q 21.296875 6.109375 26.703125 6.109375 Q 34.1875 6.109375 38.703125 11.40625 Q 43.21875 16.703125 43.21875 25.484375 L 43.21875 27.484375 z M 52.203125 31.203125 L 52.203125 0 L 43.21875 0 L 43.21875 8.296875 Q 40.140625 3.328125 35.546875 0.953125 Q 30.953125 -1.421875 24.3125 -1.421875 Q 15.921875 -1.421875 10.953125 3.296875 Q 6 8.015625 6 15.921875 Q 6 25.140625 12.171875 29.828125 Q 18.359375 34.515625 30.609375 34.515625 L 43.21875 34.515625 L 43.21875 35.40625 Q 43.21875 41.609375 39.140625 45 Q 35.0625 48.390625 27.6875 48.390625 Q 23 48.390625 18.546875 47.265625 Q 14.109375 46.140625 10.015625 43.890625 L 10.015625 52.203125 Q 14.9375 54.109375 19.578125 55.046875 Q 24.21875 56 28.609375 56 Q 40.484375 56 46.34375 49.84375 Q 52.203125 43.703125 52.203125 31.203125 z"/></defs><g transform="translate(174.151563 280.276563)scale(0.1 -0.1)"><use xlink:href="#DejaVuSans-66"/><use x="68.604" xlink:href="#DejaVuSans-111"/><use x="129.785" xlink:href="#DejaVuSans-111"/><use x="190.967" xlink:href="#DejaVuSans-115"/><use x="243.066" xlink:href="#DejaVuSans-116"/><use x="282.275" xlink:href="#DejaVuSans-105"/><use x="310.059" xlink:href="#DejaVuSans-110"/><use x="373.438" xlink:href="#DejaVuSans-103"/><use x="436.914" xlink:href="#DejaVuSans-32"/><use x="468.701" xlink:href="#DejaVuSans-73"/><use x="498.193" xlink:href="#DejaVuSans-116"/><use x="537.402" xlink:href="#DejaVuSans-101"/><use x="598.926" xlink:href="#DejaVuSans-114"/><use x="640.039" xlink:href="#DejaVuSans-97"/><use x="701.318" xlink:href="#DejaVuSans-116"/><use x="740.527" xlink:href="#DejaVuSans-105"/><use x="768.311" xlink:href="#DejaVuSans-111"/><use x="829.492" xlink:href="#DejaVuSans-110"/><use x="892.871" xlink:href="#DejaVuSans-115"/></g></g></g><g id="matplotlib.axis_2"><g id="ytick_1"><g id="line2d_7"><defs><path id="m3cc5cc50ae" stroke="#000" stroke-width=".8" d="M 0 0 L -3.5 0"/></defs><g><use x="54" y="221.336" stroke="#000" stroke-width=".8" xlink:href="#m3cc5cc50ae"/></g></g><g id="text_8"><defs><path id="DejaVuSans-46" d="M 10.6875 12.40625 L 21 12.40625 L 21 0 L 10.6875 0 z"/></defs><g transform="translate(31.096875 225.135676)scale(0.1 -0.1)"><use xlink:href="#DejaVuSans-48"/><use x="63.623" xlink:href="#DejaVuSans-46"/><use x="95.41" xlink:href="#DejaVuSans-52"/></g></g></g><g id="ytick_2"><g id="line2d_8"><g><use x="54" y="184.912" stroke="#000" stroke-width=".8" xlink:href="#m3cc5cc50ae"/></g></g><g id="text_9"><g transform="translate(31.096875 188.71094)scale(0.1 -0.1)"><use xlink:href="#DejaVuSans-48"/><use x="63.623" xlink:href="#DejaVuSans-46"/><use x="95.41" xlink:href="#DejaVuSans-54"/></g></g></g><g id="ytick_3"><g id="line2d_9"><g><use x="54" y="148.487" stroke="#000" stroke-width=".8" xlink:href="#m3cc5cc50ae"/></g></g><g id="text_10"><g transform="translate(31.096875 152.286205)scale(0.1 -0.1)"><use xlink:href="#DejaVuSans-48"/><use x="63.623" xlink:href="#DejaVuSans-46"/><use x="95.41" xlink:href="#DejaVuSans-56"/></g></g></g><g id="ytick_4"><g id="line2d_10"><g><use x="54" y="112.062" stroke="#000" stroke-width=".8" xlink:href="#m3cc5cc50ae"/></g></g><g id="text_11"><g transform="translate(31.096875 115.86147)scale(0.1 -0.1)"><use xlink:href="#DejaVuSans-49"/><use x="63.623" xlink:href="#DejaVuSans-46"/><use x="95.41" xlink:href="#DejaVuSans-48"/></g></g></g><g id="ytick_5"><g id="line2d_11"><g><use x="54" y="75.638" stroke="#000" stroke-width=".8" xlink:href="#m3cc5cc50ae"/></g></g><g id="text_12"><g transform="translate(31.096875 79.436735)scale(0.1 -0.1)"><use xlink:href="#DejaVuSans-49"/><use x="63.623" xlink:href="#DejaVuSans-46"/><use x="95.41" xlink:href="#DejaVuSans-50"/></g></g></g><g id="ytick_6"><g id="line2d_12"><g><use x="54" y="39.213" stroke="#000" stroke-width=".8" xlink:href="#m3cc5cc50ae"/></g></g><g id="text_13"><g transform="translate(31.096875 43.011999)scale(0.1 -0.1)"><use xlink:href="#DejaVuSans-49"/><use x="63.623" xlink:href="#DejaVuSans-46"/><use x="95.41" xlink:href="#DejaVuSans-52"/></g></g></g><g id="text_14"><defs><path id="DejaVuSans-84" d="M -0.296875 72.90625 L 61.375 72.90625 L 61.375 64.59375 L 35.5 64.59375 L 35.5 0 L 25.59375 0 L 25.59375 64.59375 L -0.296875 64.59375 z"/><path id="DejaVuSans-83" d="M 53.515625 70.515625 L 53.515625 60.890625 Q 47.90625 63.578125 42.921875 64.890625 Q 37.9375 66.21875 33.296875 66.21875 Q 25.25 66.21875 20.875 63.09375 Q 16.5 59.96875 16.5 54.203125 Q 16.5 49.359375 19.40625 46.890625 Q 22.3125 44.4375 30.421875 42.921875 L 36.375 41.703125 Q 47.40625 39.59375 52.65625 34.296875 Q 57.90625 29 57.90625 20.125 Q 57.90625 9.515625 50.796875 4.046875 Q 43.703125 -1.421875 29.984375 -1.421875 Q 24.8125 -1.421875 18.96875 -0.25 Q 13.140625 0.921875 6.890625 3.21875 L 6.890625 13.375 Q 12.890625 10.015625 18.65625 8.296875 Q 24.421875 6.59375 29.984375 6.59375 Q 38.421875 6.59375 43.015625 9.90625 Q 47.609375 13.234375 47.609375 19.390625 Q 47.609375 24.75 44.3125 27.78125 Q 41.015625 30.8125 33.5 32.328125 L 27.484375 33.5 Q 16.453125 35.6875 11.515625 40.375 Q 6.59375 45.0625 6.59375 53.421875 Q 6.59375 63.09375 13.40625 68.65625 Q 20.21875 74.21875 32.171875 74.21875 Q 37.3125 74.21875 42.625 73.28125 Q 47.953125 72.359375 53.515625 70.515625 z"/><path id="DejaVuSans-68" d="M 19.671875 64.796875 L 19.671875 8.109375 L 31.59375 8.109375 Q 46.6875 8.109375 53.6875 14.9375 Q 60.6875 21.78125 60.6875 36.53125 Q 60.6875 51.171875 53.6875 57.984375 Q 46.6875 64.796875 31.59375 64.796875 z M 9.8125 72.90625 L 30.078125 72.90625 Q 51.265625 72.90625 61.171875 64.09375 Q 71.09375 55.28125 71.09375 36.53125 Q 71.09375 17.671875 61.125 8.828125 Q 51.171875 0 30.078125 0 L 9.8125 0 z"/><path id="DejaVuSans-118" d="M 2.984375 54.6875 L 12.5 54.6875 L 29.59375 8.796875 L 46.6875 54.6875 L 56.203125 54.6875 L 35.6875 0 L 23.484375 0 z"/><path id="DejaVuSans-99" d="M 48.78125 52.59375 L 48.78125 44.1875 Q 44.96875 46.296875 41.140625 47.34375 Q 37.3125 48.390625 33.40625 48.390625 Q 24.65625 48.390625 19.8125 42.84375 Q 14.984375 37.3125 14.984375 27.296875 Q 14.984375 17.28125 19.8125 11.734375 Q 24.65625 6.203125 33.40625 6.203125 Q 37.3125 6.203125 41.140625 7.25 Q 44.96875 8.296875 48.78125 10.40625 L 48.78125 2.09375 Q 45.015625 0.34375 40.984375 -0.53125 Q 36.96875 -1.421875 32.421875 -1.421875 Q 20.0625 -1.421875 12.78125 6.34375 Q 5.515625 14.109375 5.515625 27.296875 Q 5.515625 40.671875 12.859375 48.328125 Q 20.21875 56 33.015625 56 Q 37.15625 56 41.109375 55.140625 Q 45.0625 54.296875 48.78125 52.59375 z"/></defs><g transform="translate(25.017187 191.289375)rotate(-90)scale(0.1 -0.1)"><use xlink:href="#DejaVuSans-84"/><use x="60.818" xlink:href="#DejaVuSans-101"/><use x="122.342" xlink:href="#DejaVuSans-115"/><use x="174.441" xlink:href="#DejaVuSans-116"/><use x="213.65" xlink:href="#DejaVuSans-32"/><use x="245.438" xlink:href="#DejaVuSans-83"/><use x="308.914" xlink:href="#DejaVuSans-101"/><use x="370.438" xlink:href="#DejaVuSans-116"/><use x="409.646" xlink:href="#DejaVuSans-32"/><use x="441.434" xlink:href="#DejaVuSans-68"/><use x="518.436" xlink:href="#DejaVuSans-101"/><use x="579.959" xlink:href="#DejaVuSans-118"/><use x="639.139" xlink:href="#DejaVuSans-105"/><use x="666.922" xlink:href="#DejaVuSans-97"/><use x="728.201" xlink:href="#DejaVuSans-110"/><use x="791.58" xlink:href="#DejaVuSans-99"/><use x="846.561" xlink:href="#DejaVuSans-101"/><use x="908.084" xlink:href="#DejaVuSans-115"/></g></g></g><g id="line2d_13"><path fill="none" stroke="orange" stroke-linecap="square" stroke-width="1.5" d="M 69.218182 54.689616 L 70.747647 126.32843 L 72.277113 155.251366 L 73.806578 176.84734 L 76.865509 200.561029 L 78.394975 205.132481 L 79.92444 207.959101 L 81.453906 210.534121 L 82.983371 212.406006 L 84.512837 215.038624 L 86.042302 218.007198 L 87.571768 217.909359 L 89.101233 218.524797 L 90.630699 222.000256 L 92.160164 222.872409 L 93.68963 223.420872 L 95.219095 224.281709 L 96.748561 225.285748 L 98.278026 224.427242 L 99.807492 224.067458 L 101.336958 224.220395 L 102.866423 225.129392 L 104.395889 226.52926 L 105.925354 227.456245 L 107.45482 227.82603 L 108.984285 227.342684 L 110.513751 226.428369 L 112.043216 226.257032 L 113.572682 227.243502 L 115.102147 226.69849 L 118.161078 226.786232 L 119.690544 226.7382 L 122.749475 226.928874 L 124.27894 226.801062 L 125.808406 227.240008 L 127.337871 227.561842 L 128.867337 228.309934 L 130.396802 228.280648 L 133.455733 227.563737 L 134.985199 227.163054 L 136.514664 228.201554 L 138.04413 228.115034 L 141.103061 227.202162 L 142.632526 228.57991 L 144.161992 228.293471 L 145.691457 227.783005 L 147.220923 227.976839 L 148.750388 227.393569 L 150.279854 227.780874 L 151.809319 226.751072 L 153.338785 226.041098 L 154.86825 225.513077 L 156.397716 225.135271 L 157.927181 225.299286 L 159.456647 225.829751 L 160.986112 224.93413 L 162.515578 225.169937 L 164.045043 226.491488 L 167.103974 225.644824 L 168.63344 225.929267 L 170.162905 226.010892 L 171.692371 225.39054 L 173.221836 225.479415 L 174.751302 225.027198 L 176.280767 225.676199 L 179.339698 224.040866 L 180.869164 223.747456 L 182.39863 222.547238 L 183.928095 222.501612 L 186.987026 221.562723 L 190.045957 221.381006 L 191.575423 220.840863 L 193.104888 220.755743 L 194.634354 220.149302 L 196.163819 219.258557 L 197.693285 219.692096 L 199.22275 218.950305 L 200.752216 218.935866 L 202.281681 217.959333 L 203.811147 217.4433 L 205.340612 216.376786 L 206.870078 217.321694 L 208.399543 215.758299 L 209.929009 215.00068 L 211.458474 215.566975 L 212.98794 214.638417 L 214.517405 215.018024 L 216.046871 215.156595 L 217.576336 214.252146 L 219.105802 214.460907 L 222.164733 214.234457 L 223.694198 213.232126 L 226.753129 213.301515 L 229.81206 212.957767 L 231.341526 213.534925 L 373.581818 213.534925 L 373.581818 213.534925" clip-path="url(#p9642951e06)"/></g><g id="line2d_14"><path fill="none" stroke="#40e0d0" stroke-linecap="square" stroke-width="1.5" d="M 69.218182 44.446452 L 70.747647 56.172822 L 72.277113 66.831982 L 75.336044 83.92458 L 76.865509 91.32887 L 79.92444 104.096573 L 82.983371 114.500109 L 84.512837 118.987435 L 89.101233 131.391353 L 92.160164 138.212569 L 93.68963 141.430488 L 98.278026 149.91928 L 104.395889 159.078634 L 107.45482 163.442997 L 115.102147 171.798754 L 118.161078 175.052152 L 122.749475 179.229693 L 124.27894 180.601858 L 127.337871 182.71916 L 128.867337 184.06783 L 134.985199 188.501622 L 138.04413 190.308662 L 141.103061 192.220215 L 142.632526 192.995445 L 145.691457 194.914289 L 148.750388 196.203277 L 150.279854 197.054336 L 151.809319 197.56362 L 153.338785 198.369438 L 154.86825 198.917004 L 157.927181 200.4185 L 159.456647 200.976272 L 160.986112 201.679676 L 164.045043 202.788888 L 165.574509 203.363319 L 167.103974 203.796245 L 168.63344 204.41661 L 173.221836 205.898467 L 176.280767 206.912304 L 179.339698 207.717876 L 180.869164 208.315044 L 182.39863 208.739092 L 185.457561 209.40115 L 191.575423 211.021869 L 193.104888 211.249684 L 200.752216 213.098246 L 211.458474 214.808028 L 212.98794 215.263194 L 214.517405 215.365139 L 216.046871 215.653078 L 220.635267 216.234572 L 225.223664 217.00241 L 226.753129 217.148622 L 228.282595 217.483401 L 240.518319 218.798915 L 242.047784 219.141635 L 254.283508 220.623045 L 255.812974 220.62612 L 257.342439 220.83761 L 261.930836 221.14023 L 263.460302 221.373276 L 266.519233 221.44386 L 268.048698 221.70265 L 271.107629 221.903605 L 274.16656 222.240425 L 277.225491 222.354643 L 278.754957 222.518867 L 280.284422 222.510676 L 283.343353 222.809273 L 284.872819 222.799522 L 286.402284 222.974818 L 294.049612 223.359607 L 298.638008 223.644499 L 304.75587 223.992766 L 307.814801 224.420374 L 312.403198 224.590691 L 318.52106 224.95408 L 324.638922 225.141821 L 332.286249 225.50026 L 333.815715 225.750463 L 338.404111 225.856657 L 341.463042 226.099472 L 342.992508 226.082277 L 349.11037 226.49173 L 352.169301 226.469171 L 353.698767 226.596992 L 358.287163 226.674732 L 359.816629 226.821952 L 362.87556 226.832914 L 367.463956 227.069443 L 368.993422 227.093598 L 370.522887 227.265818 L 373.581818 227.304477 L 373.581818 227.304477" clip-path="url(#p9642951e06)"/></g><g id="line2d_15"><path fill="none" stroke="#00f" stroke-linecap="square" stroke-width="1.5" d="M 69.218182 54.511603 L 70.747647 121.140535 L 72.277113 155.799679 L 73.806578 177.34224 L 75.336044 188.528766 L 76.865509 192.613987 L 78.394975 197.151269 L 79.92444 201.186956 L 81.453906 204.358199 L 82.983371 204.347253 L 86.042302 209.567281 L 87.571768 209.32182 L 89.101233 202.138367 L 90.630699 204.188311 L 92.160164 203.938592 L 93.68963 203.125038 L 95.219095 205.864682 L 96.748561 204.369472 L 98.278026 203.148532 L 99.807492 204.169117 L 101.336958 205.452287 L 102.866423 204.719196 L 104.395889 208.100534 L 105.925354 209.023363 L 107.45482 210.128861 L 108.984285 208.449349 L 110.513751 209.78825 L 112.043216 207.192042 L 113.572682 207.644891 L 115.102147 207.969667 L 116.631613 210.22264 L 118.161078 208.253514 L 119.690544 207.10529 L 121.220009 206.830702 L 122.749475 209.222645 L 124.27894 206.135751 L 125.808406 208.074763 L 127.337871 208.373234 L 128.867337 209.180416 L 130.396802 209.141861 L 133.455733 208.601688 L 134.985199 207.268094 L 136.514664 206.373133 L 138.04413 206.758416 L 139.573595 205.286179 L 141.103061 207.702158 L 142.632526 208.488778 L 144.161992 207.994588 L 145.691457 211.190664 L 147.220923 211.443938 L 148.750388 209.605326 L 150.279854 209.720973 L 153.338785 212.178615 L 154.86825 211.060107 L 156.397716 210.963175 L 157.927181 208.681959 L 160.986112 210.490176 L 162.515578 210.726869 L 164.045043 210.850757 L 165.574509 208.944314 L 167.103974 210.209553 L 168.63344 209.623369 L 170.162905 209.230043 L 171.692371 210.435431 L 173.221836 210.330671 L 174.751302 209.63679 L 176.280767 211.16101 L 177.810233 208.710048 L 179.339698 210.025154 L 180.869164 211.699363 L 182.39863 212.229091 L 183.928095 213.267505 L 185.457561 211.473158 L 186.987026 209.994436 L 188.516492 210.060566 L 190.045957 208.677206 L 191.575423 208.324428 L 193.104888 206.52265 L 194.634354 207.945133 L 196.163819 209.084139 L 197.693285 208.525417 L 199.22275 208.424741 L 200.752216 208.150623 L 202.281681 206.779718 L 203.811147 206.237642 L 205.340612 208.859185 L 206.870078 207.137608 L 208.399543 208.748887 L 209.929009 208.276738 L 211.458474 206.264825 L 212.98794 206.777878 L 214.517405 205.395348 L 216.046871 206.783625 L 217.576336 207.045815 L 219.105802 205.905318 L 220.635267 207.345883 L 222.164733 208.166057 L 223.694198 207.179948 L 225.223664 204.495711 L 228.282595 206.535033 L 229.81206 204.751839 L 231.341526 204.643247 L 232.870991 204.982407 L 234.400457 205.148478 L 235.929922 206.541871 L 237.459388 206.946241 L 240.518319 206.029177 L 242.047784 206.993988 L 243.57725 203.662963 L 245.106715 205.962558 L 246.636181 206.187938 L 248.165646 204.675305 L 249.695112 204.107169 L 251.224577 202.30827 L 252.754043 201.838677 L 254.283508 201.910339 L 255.812974 203.502385 L 257.342439 202.119291 L 258.871905 199.92694 L 260.40137 201.962014 L 261.930836 202.749112 L 263.460302 202.18065 L 264.989767 203.430096 L 266.519233 203.99688 L 268.048698 205.538468 L 269.578164 204.801292 L 271.107629 204.842756 L 272.637095 203.571158 L 274.16656 204.027709 L 275.696026 204.71413 L 277.225491 202.711491 L 278.754957 203.631632 L 280.284422 203.018151 L 281.813888 202.942222 L 283.343353 203.57733 L 284.872819 203.437177 L 286.402284 203.979589 L 287.93175 203.071936 L 289.461215 203.50369 L 290.990681 203.093237 L 292.520146 203.303501 L 294.049612 204.328555 L 295.579077 203.764143 L 297.108543 202.777386 L 298.638008 203.916109 L 300.167474 203.702409 L 301.696939 203.711756 L 303.226405 203.2622 L 304.75587 203.757861 L 306.285336 203.176129 L 307.814801 202.00344 L 309.344267 203.171059 L 310.873732 203.430625 L 312.403198 202.80966 L 313.932663 203.25026 L 315.462129 202.714903 L 316.991594 203.145946 L 318.52106 204.22774 L 320.050525 202.604409 L 321.579991 203.174316 L 323.109456 202.816758 L 324.638922 203.353693 L 326.168387 202.669839 L 327.697853 203.846291 L 329.227318 203.357918 L 330.756784 204.125694 L 332.286249 203.21414 L 333.815715 202.718673 L 335.34518 203.832622 L 336.874646 204.70251 L 338.404111 202.085358 L 339.933577 203.010005 L 341.463042 203.268592 L 342.992508 203.776978 L 344.521974 203.40331 L 346.051439 203.686123 L 349.11037 203.352986 L 350.639836 203.193347 L 352.169301 204.053556 L 353.698767 202.773689 L 355.228232 203.273199 L 356.757698 204.127912 L 358.287163 203.188942 L 359.816629 203.856176 L 361.346094 202.610701 L 362.87556 203.300971 L 364.405025 203.395975 L 365.934491 203.101567 L 367.463956 203.689954 L 368.993422 203.088726 L 370.522887 203.86218 L 372.052353 203.445787 L 373.581818 203.42467 L 373.581818 203.42467" clip-path="url(#p9642951e06)"/></g><g id="line2d_16"><path fill="none" stroke="gray" stroke-linecap="square" stroke-width="1.5" d="M 69.218182 44.702114 L 70.747647 57.742433 L 73.806578 79.190204 L 75.336044 88.66986 L 76.865509 97.029304 L 79.92444 111.203472 L 82.983371 123.593252 L 86.042302 133.433769 L 89.101233 142.251375 L 90.630699 146.042694 L 92.160164 150.139447 L 98.278026 162.536967 L 104.395889 172.755181 L 105.925354 174.700193 L 107.45482 176.972302 L 108.984285 178.792441 L 110.513751 180.936832 L 112.043216 182.778081 L 113.572682 184.406078 L 115.102147 185.776183 L 118.161078 189.396247 L 119.690544 190.94691 L 121.220009 192.333806 L 122.749475 193.437561 L 127.337871 197.251573 L 128.867337 198.232149 L 133.455733 201.768104 L 134.985199 203.362932 L 138.04413 205.338545 L 139.573595 206.149967 L 141.103061 206.639978 L 142.632526 207.538912 L 144.161992 208.584586 L 145.691457 209.218316 L 147.220923 210.250741 L 148.750388 210.923057 L 150.279854 211.34183 L 151.809319 212.102212 L 153.338785 213.025716 L 154.86825 213.742673 L 157.927181 214.766304 L 164.045043 217.504361 L 165.574509 217.928473 L 167.103974 218.478236 L 168.63344 218.873637 L 170.162905 219.519013 L 171.692371 219.900145 L 173.221836 220.116566 L 177.810233 221.571702 L 183.928095 222.949775 L 186.987026 224.100781 L 188.516492 224.46957 L 191.575423 224.822243 L 193.104888 225.191414 L 194.634354 225.3445 L 196.163819 225.708835 L 197.693285 226.263348 L 199.22275 226.529156 L 200.752216 226.919205 L 203.811147 227.182413 L 206.870078 227.852079 L 208.399543 228.279055 L 211.458474 228.841683 L 214.517405 229.411449 L 217.576336 230.228663 L 220.635267 230.616425 L 223.694198 231.124364 L 231.341526 231.855265 L 235.929922 232.828009 L 237.459388 232.858468 L 238.988853 233.100479 L 240.518319 233.132347 L 242.047784 233.288143 L 245.106715 233.778692 L 249.695112 234.433256 L 252.754043 234.449572 L 255.812974 234.832264 L 257.342439 234.886639 L 258.871905 234.796648 L 261.930836 235.563156 L 264.989767 235.834596 L 277.225491 236.93361 L 278.754957 237.213061 L 281.813888 237.437816 L 289.461215 237.846675 L 290.990681 237.712614 L 292.520146 237.836709 L 294.049612 238.175101 L 297.108543 238.432579 L 298.638008 238.564626 L 300.167474 238.85285 L 306.285336 238.902912 L 307.814801 238.939326 L 309.344267 239.225533 L 312.403198 239.274626 L 316.991594 239.379678 L 321.579991 239.461791 L 323.109456 239.423967 L 326.168387 239.649198 L 329.227318 239.881172 L 330.756784 239.779878 L 332.286249 239.920824 L 335.34518 239.973081 L 336.874646 240.207134 L 338.404111 240.162502 L 341.463042 240.418691 L 347.580905 240.702178 L 349.11037 241.043154 L 350.639836 240.981649 L 353.698767 241.053205 L 355.228232 240.998925 L 358.287163 241.124083 L 362.87556 241.164268 L 364.405025 241.392909 L 368.993422 241.370482 L 372.052353 241.974113 L 373.581818 242.116364 L 373.581818 242.116364" clip-path="url(#p9642951e06)"/></g><g id="line2d_17"><path fill="none" stroke="#f0f" stroke-linecap="square" stroke-width="1.5" d="M 69.218182 44.443636 L 70.747647 55.77106 L 72.277113 65.729794 L 73.806578 74.936206 L 75.336044 83.070721 L 79.92444 102.729668 L 81.453906 108.189891 L 82.983371 113.20718 L 84.512837 117.732501 L 87.571768 125.618896 L 90.630699 132.578701 L 93.68963 139.25349 L 96.748561 144.908846 L 102.866423 154.677418 L 108.984285 162.86649 L 113.572682 168.195902 L 119.690544 174.031316 L 125.808406 179.597812 L 127.337871 180.585394 L 128.867337 181.913976 L 130.396802 182.931982 L 131.926268 184.283861 L 133.455733 185.197222 L 134.985199 186.426736 L 139.573595 189.216167 L 141.103061 189.907461 L 144.161992 191.751443 L 148.750388 194.207745 L 151.809319 196.025385 L 156.397716 198.032368 L 160.986112 200.245245 L 167.103974 202.716306 L 168.63344 203.109691 L 171.692371 204.364528 L 173.221836 204.85826 L 174.751302 205.514906 L 176.280767 205.860846 L 180.869164 207.452445 L 182.39863 207.645271 L 185.457561 208.455717 L 186.987026 209.029615 L 191.575423 210.248335 L 193.104888 210.727735 L 194.634354 211.026994 L 200.752216 212.650485 L 202.281681 212.806722 L 205.340612 213.639174 L 209.929009 214.613232 L 212.98794 215.215648 L 219.105802 216.379929 L 222.164733 217.058576 L 231.341526 218.432461 L 232.870991 218.821689 L 245.106715 220.205997 L 251.224577 221.104151 L 258.871905 221.969476 L 268.048698 223.016372 L 271.107629 223.29099 L 274.16656 223.617274 L 278.754957 224.064151 L 286.402284 224.910702 L 289.461215 225.163449 L 312.403198 226.729727 L 315.462129 226.77915 L 318.52106 227.056867 L 324.638922 227.504679 L 333.815715 228.039156 L 341.463042 228.530117 L 349.11037 228.905063 L 355.228232 229.197611 L 356.757698 229.296734 L 358.287163 229.276468 L 361.346094 229.640729 L 364.405025 229.858861 L 368.993422 230.225499 L 372.052353 230.27295 L 373.581818 230.39569 L 373.581818 230.39569" clip-path="url(#p9642951e06)"/></g><g id="patch_3"><path fill="none" stroke="#000" stroke-linecap="square" stroke-linejoin="miter" stroke-width=".8" d="M 54 252 L 54 34.56"/></g><g id="patch_4"><path fill="none" stroke="#000" stroke-linecap="square" stroke-linejoin="miter" stroke-width=".8" d="M 388.8 252 L 388.8 34.56"/></g><g id="patch_5"><path fill="none" stroke="#000" stroke-linecap="square" stroke-linejoin="miter" stroke-width=".8" d="M 54 252 L 388.8 252"/></g><g id="patch_6"><path fill="none" stroke="#000" stroke-linecap="square" stroke-linejoin="miter" stroke-width=".8" d="M 54 34.56 L 388.8 34.56"/></g><g id="legend_1"><g id="patch_7"><path fill="#fff" stroke="#ccc" stroke-linejoin="miter" d="M 61 116.785 L 272.98125 116.785 Q 274.98125 116.785 274.98125 114.785 L 274.98125 41.56 Q 274.98125 39.56 272.98125 39.56 L 61 39.56 Q 59 39.56 59 41.56 L 59 114.785 Q 59 116.785 61 116.785 z" opacity=".8"/></g><g id="line2d_18"><path fill="none" stroke="orange" stroke-linecap="square" stroke-width="1.5" d="M 63 47.658437 L 83 47.658437"/></g><g id="text_15"><defs><path id="DejaVuSans-78" d="M 9.8125 72.90625 L 23.09375 72.90625 L 55.421875 11.921875 L 55.421875 72.90625 L 64.984375 72.90625 L 64.984375 0 L 51.703125 0 L 19.390625 60.984375 L 19.390625 0 L 9.8125 0 z"/><path id="DejaVuSans-104" d="M 54.890625 33.015625 L 54.890625 0 L 45.90625 0 L 45.90625 32.71875 Q 45.90625 40.484375 42.875 44.328125 Q 39.84375 48.1875 33.796875 48.1875 Q 26.515625 48.1875 22.3125 43.546875 Q 18.109375 38.921875 18.109375 30.90625 L 18.109375 0 L 9.078125 0 L 9.078125 75.984375 L 18.109375 75.984375 L 18.109375 46.1875 Q 21.34375 51.125 25.703125 53.5625 Q 30.078125 56 35.796875 56 Q 45.21875 56 50.046875 50.171875 Q 54.890625 44.34375 54.890625 33.015625 z"/><path id="DejaVuSans-107" d="M 9.078125 75.984375 L 18.109375 75.984375 L 18.109375 31.109375 L 44.921875 54.6875 L 56.390625 54.6875 L 27.390625 29.109375 L 57.625 0 L 45.90625 0 L 18.109375 26.703125 L 18.109375 0 L 9.078125 0 z"/></defs><g transform="translate(91 51.158437)scale(0.1 -0.1)"><use xlink:href="#DejaVuSans-78"/><use x="74.805" xlink:href="#DejaVuSans-111"/><use x="135.986" xlink:href="#DejaVuSans-32"/><use x="167.773" xlink:href="#DejaVuSans-115"/><use x="219.873" xlink:href="#DejaVuSans-104"/><use x="283.252" xlink:href="#DejaVuSans-114"/><use x="324.365" xlink:href="#DejaVuSans-105"/><use x="352.148" xlink:href="#DejaVuSans-110"/><use x="415.527" xlink:href="#DejaVuSans-107"/><use x="473.422" xlink:href="#DejaVuSans-97"/><use x="534.701" xlink:href="#DejaVuSans-103"/><use x="598.178" xlink:href="#DejaVuSans-101"/></g></g><g id="line2d_20"><path fill="none" stroke="#40e0d0" stroke-linecap="square" stroke-width="1.5" d="M 63 62.336562 L 83 62.336562"/></g><g id="text_16"><defs><path id="DejaVuSans-108" d="M 9.421875 75.984375 L 18.40625 75.984375 L 18.40625 0 L 9.421875 0 z"/><path id="DejaVuSans-95" d="M 50.984375 -16.609375 L 50.984375 -23.578125 L -0.984375 -23.578125 L -0.984375 -16.609375 z"/><path id="DejaVuSans-61" d="M 10.59375 45.40625 L 73.1875 45.40625 L 73.1875 37.203125 L 10.59375 37.203125 z M 10.59375 25.484375 L 73.1875 25.484375 L 73.1875 17.1875 L 10.59375 17.1875 z"/></defs><g transform="translate(91 65.836562)scale(0.1 -0.1)"><use xlink:href="#DejaVuSans-108"/><use x="27.783" xlink:href="#DejaVuSans-101"/><use x="89.307" xlink:href="#DejaVuSans-97"/><use x="150.586" xlink:href="#DejaVuSans-114"/><use x="191.684" xlink:href="#DejaVuSans-110"/><use x="255.063" xlink:href="#DejaVuSans-105"/><use x="282.846" xlink:href="#DejaVuSans-110"/><use x="346.225" xlink:href="#DejaVuSans-103"/><use x="409.701" xlink:href="#DejaVuSans-95"/><use x="459.701" xlink:href="#DejaVuSans-114"/><use x="500.814" xlink:href="#DejaVuSans-97"/><use x="562.094" xlink:href="#DejaVuSans-116"/><use x="601.303" xlink:href="#DejaVuSans-101"/><use x="662.826" xlink:href="#DejaVuSans-61"/><use x="746.615" xlink:href="#DejaVuSans-48"/><use x="810.238" xlink:href="#DejaVuSans-46"/><use x="842.025" xlink:href="#DejaVuSans-49"/></g></g><g id="line2d_22"><path fill="none" stroke="#00f" stroke-linecap="square" stroke-width="1.5" d="M 63 77.292812 L 83 77.292812"/></g><g id="text_17"><defs><path id="DejaVuSans-117" d="M 8.5 21.578125 L 8.5 54.6875 L 17.484375 54.6875 L 17.484375 21.921875 Q 17.484375 14.15625 20.5 10.265625 Q 23.53125 6.390625 29.59375 6.390625 Q 36.859375 6.390625 41.078125 11.03125 Q 45.3125 15.671875 45.3125 23.6875 L 45.3125 54.6875 L 54.296875 54.6875 L 54.296875 0 L 45.3125 0 L 45.3125 8.40625 Q 42.046875 3.421875 37.71875 1 Q 33.40625 -1.421875 27.6875 -1.421875 Q 18.265625 -1.421875 13.375 4.4375 Q 8.5 10.296875 8.5 21.578125 z M 31.109375 56 z"/><path id="DejaVuSans-98" d="M 48.6875 27.296875 Q 48.6875 37.203125 44.609375 42.84375 Q 40.53125 48.484375 33.40625 48.484375 Q 26.265625 48.484375 22.1875 42.84375 Q 18.109375 37.203125 18.109375 27.296875 Q 18.109375 17.390625 22.1875 11.75 Q 26.265625 6.109375 33.40625 6.109375 Q 40.53125 6.109375 44.609375 11.75 Q 48.6875 17.390625 48.6875 27.296875 z M 18.109375 46.390625 Q 20.953125 51.265625 25.265625 53.625 Q 29.59375 56 35.59375 56 Q 45.5625 56 51.78125 48.09375 Q 58.015625 40.1875 58.015625 27.296875 Q 58.015625 14.40625 51.78125 6.484375 Q 45.5625 -1.421875 35.59375 -1.421875 Q 29.59375 -1.421875 25.265625 0.953125 Q 20.953125 3.328125 18.109375 8.203125 L 18.109375 0 L 9.078125 0 L 9.078125 75.984375 L 18.109375 75.984375 z"/><path id="DejaVuSans-109" d="M 52 44.1875 Q 55.375 50.25 60.0625 53.125 Q 64.75 56 71.09375 56 Q 79.640625 56 84.28125 50.015625 Q 88.921875 44.046875 88.921875 33.015625 L 88.921875 0 L 79.890625 0 L 79.890625 32.71875 Q 79.890625 40.578125 77.09375 44.375 Q 74.3125 48.1875 68.609375 48.1875 Q 61.625 48.1875 57.5625 43.546875 Q 53.515625 38.921875 53.515625 30.90625 L 53.515625 0 L 44.484375 0 L 44.484375 32.71875 Q 44.484375 40.625 41.703125 44.40625 Q 38.921875 48.1875 33.109375 48.1875 Q 26.21875 48.1875 22.15625 43.53125 Q 18.109375 38.875 18.109375 30.90625 L 18.109375 0 L 9.078125 0 L 9.078125 54.6875 L 18.109375 54.6875 L 18.109375 46.1875 Q 21.1875 51.21875 25.484375 53.609375 Q 29.78125 56 35.6875 56 Q 41.65625 56 45.828125 52.96875 Q 50 49.953125 52 44.1875 z"/><path id="DejaVuSans-112" d="M 18.109375 8.203125 L 18.109375 -20.796875 L 9.078125 -20.796875 L 9.078125 54.6875 L 18.109375 54.6875 L 18.109375 46.390625 Q 20.953125 51.265625 25.265625 53.625 Q 29.59375 56 35.59375 56 Q 45.5625 56 51.78125 48.09375 Q 58.015625 40.1875 58.015625 27.296875 Q 58.015625 14.40625 51.78125 6.484375 Q 45.5625 -1.421875 35.59375 -1.421875 Q 29.59375 -1.421875 25.265625 0.953125 Q 20.953125 3.328125 18.109375 8.203125 z M 48.6875 27.296875 Q 48.6875 37.203125 44.609375 42.84375 Q 40.53125 48.484375 33.40625 48.484375 Q 26.265625 48.484375 22.1875 42.84375 Q 18.109375 37.203125 18.109375 27.296875 Q 18.109375 17.390625 22.1875 11.75 Q 26.265625 6.109375 33.40625 6.109375 Q 40.53125 6.109375 44.609375 11.75 Q 48.6875 17.390625 48.6875 27.296875 z"/><path id="DejaVuSans-53" d="M 10.796875 72.90625 L 49.515625 72.90625 L 49.515625 64.59375 L 19.828125 64.59375 L 19.828125 46.734375 Q 21.96875 47.46875 24.109375 47.828125 Q 26.265625 48.1875 28.421875 48.1875 Q 40.625 48.1875 47.75 41.5 Q 54.890625 34.8125 54.890625 23.390625 Q 54.890625 11.625 47.5625 5.09375 Q 40.234375 -1.421875 26.90625 -1.421875 Q 22.3125 -1.421875 17.546875 -0.640625 Q 12.796875 0.140625 7.71875 1.703125 L 7.71875 11.625 Q 12.109375 9.234375 16.796875 8.0625 Q 21.484375 6.890625 26.703125 6.890625 Q 35.15625 6.890625 40.078125 11.328125 Q 45.015625 15.765625 45.015625 23.390625 Q 45.015625 31 40.078125 35.4375 Q 35.15625 39.890625 26.703125 39.890625 Q 22.75 39.890625 18.8125 39.015625 Q 14.890625 38.140625 10.796875 36.28125 z"/></defs><g transform="translate(91 80.792812)scale(0.1 -0.1)"><use xlink:href="#DejaVuSans-115"/><use x="52.1" xlink:href="#DejaVuSans-117"/><use x="115.479" xlink:href="#DejaVuSans-98"/><use x="178.955" xlink:href="#DejaVuSans-115"/><use x="231.055" xlink:href="#DejaVuSans-97"/><use x="292.334" xlink:href="#DejaVuSans-109"/><use x="389.746" xlink:href="#DejaVuSans-112"/><use x="453.223" xlink:href="#DejaVuSans-108"/><use x="481.006" xlink:href="#DejaVuSans-101"/><use x="542.529" xlink:href="#DejaVuSans-61"/><use x="626.318" xlink:href="#DejaVuSans-48"/><use x="689.941" xlink:href="#DejaVuSans-46"/><use x="721.729" xlink:href="#DejaVuSans-53"/></g></g><g id="line2d_24"><path fill="none" stroke="gray" stroke-linecap="square" stroke-width="1.5" d="M 63 91.970937 L 83 91.970937"/></g><g id="text_18"><defs><path id="DejaVuSans-44" d="M 11.71875 12.40625 L 22.015625 12.40625 L 22.015625 4 L 14.015625 -11.625 L 7.71875 -11.625 L 11.71875 4 z"/></defs><g transform="translate(91 95.470937)scale(0.1 -0.1)"><use xlink:href="#DejaVuSans-108"/><use x="27.783" xlink:href="#DejaVuSans-101"/><use x="89.307" xlink:href="#DejaVuSans-97"/><use x="150.586" xlink:href="#DejaVuSans-114"/><use x="191.684" xlink:href="#DejaVuSans-110"/><use x="255.063" xlink:href="#DejaVuSans-105"/><use x="282.846" xlink:href="#DejaVuSans-110"/><use x="346.225" xlink:href="#DejaVuSans-103"/><use x="409.701" xlink:href="#DejaVuSans-95"/><use x="459.701" xlink:href="#DejaVuSans-114"/><use x="500.814" xlink:href="#DejaVuSans-97"/><use x="562.094" xlink:href="#DejaVuSans-116"/><use x="601.303" xlink:href="#DejaVuSans-101"/><use x="662.826" xlink:href="#DejaVuSans-61"/><use x="746.615" xlink:href="#DejaVuSans-48"/><use x="810.238" xlink:href="#DejaVuSans-46"/><use x="842.025" xlink:href="#DejaVuSans-49"/><use x="905.648" xlink:href="#DejaVuSans-44"/><use x="937.436" xlink:href="#DejaVuSans-32"/><use x="969.223" xlink:href="#DejaVuSans-115"/><use x="1021.322" xlink:href="#DejaVuSans-117"/><use x="1084.701" xlink:href="#DejaVuSans-98"/><use x="1148.178" xlink:href="#DejaVuSans-115"/><use x="1200.277" xlink:href="#DejaVuSans-97"/><use x="1261.557" xlink:href="#DejaVuSans-109"/><use x="1358.969" xlink:href="#DejaVuSans-112"/><use x="1422.445" xlink:href="#DejaVuSans-108"/><use x="1450.229" xlink:href="#DejaVuSans-101"/><use x="1511.752" xlink:href="#DejaVuSans-61"/><use x="1595.541" xlink:href="#DejaVuSans-48"/><use x="1659.164" xlink:href="#DejaVuSans-46"/><use x="1690.951" xlink:href="#DejaVuSans-53"/></g></g><g id="line2d_26"><path fill="none" stroke="#f0f" stroke-linecap="square" stroke-width="1.5" d="M 63 106.927188 L 83 106.927188"/></g><g id="text_19"><defs><path id="DejaVuSans-120" d="M 54.890625 54.6875 L 35.109375 28.078125 L 55.90625 0 L 45.3125 0 L 29.390625 21.484375 L 13.484375 0 L 2.875 0 L 24.125 28.609375 L 4.6875 54.6875 L 15.28125 54.6875 L 29.78125 35.203125 L 44.28125 54.6875 z"/><path id="DejaVuSans-102" d="M 37.109375 75.984375 L 37.109375 68.5 L 28.515625 68.5 Q 23.6875 68.5 21.796875 66.546875 Q 19.921875 64.59375 19.921875 59.515625 L 19.921875 54.6875 L 34.71875 54.6875 L 34.71875 47.703125 L 19.921875 47.703125 L 19.921875 0 L 10.890625 0 L 10.890625 47.703125 L 2.296875 47.703125 L 2.296875 54.6875 L 10.890625 54.6875 L 10.890625 58.5 Q 10.890625 67.625 15.140625 71.796875 Q 19.390625 75.984375 28.609375 75.984375 z"/></defs><g transform="translate(91 110.427188)scale(0.1 -0.1)"><use xlink:href="#DejaVuSans-108"/><use x="27.783" xlink:href="#DejaVuSans-101"/><use x="89.307" xlink:href="#DejaVuSans-97"/><use x="150.586" xlink:href="#DejaVuSans-114"/><use x="191.684" xlink:href="#DejaVuSans-110"/><use x="255.063" xlink:href="#DejaVuSans-105"/><use x="282.846" xlink:href="#DejaVuSans-110"/><use x="346.225" xlink:href="#DejaVuSans-103"/><use x="409.701" xlink:href="#DejaVuSans-95"/><use x="459.701" xlink:href="#DejaVuSans-114"/><use x="500.814" xlink:href="#DejaVuSans-97"/><use x="562.094" xlink:href="#DejaVuSans-116"/><use x="601.303" xlink:href="#DejaVuSans-101"/><use x="662.826" xlink:href="#DejaVuSans-61"/><use x="746.615" xlink:href="#DejaVuSans-48"/><use x="810.238" xlink:href="#DejaVuSans-46"/><use x="842.025" xlink:href="#DejaVuSans-49"/><use x="905.648" xlink:href="#DejaVuSans-44"/><use x="937.436" xlink:href="#DejaVuSans-32"/><use x="969.223" xlink:href="#DejaVuSans-109"/><use x="1066.635" xlink:href="#DejaVuSans-97"/><use x="1127.914" xlink:href="#DejaVuSans-120"/><use x="1187.094" xlink:href="#DejaVuSans-95"/><use x="1237.094" xlink:href="#DejaVuSans-102"/><use x="1272.299" xlink:href="#DejaVuSans-101"/><use x="1333.822" xlink:href="#DejaVuSans-97"/><use x="1395.102" xlink:href="#DejaVuSans-116"/><use x="1434.311" xlink:href="#DejaVuSans-117"/><use x="1497.689" xlink:href="#DejaVuSans-114"/><use x="1538.771" xlink:href="#DejaVuSans-101"/><use x="1600.295" xlink:href="#DejaVuSans-115"/><use x="1652.395" xlink:href="#DejaVuSans-61"/><use x="1736.184" xlink:href="#DejaVuSans-50"/></g></g></g></g></g><defs><clipPath id="p9642951e06"><rect width="334.8" height="217.44" x="54" y="34.56"/></clipPath></defs></svg>