<svg xmlns="http://www.w3.org/2000/svg" xmlns:svg="http://www.w3.org/2000/svg" id="svg3715" width="128" height="128" fill="#fff" version="1.1" viewBox="0 0 64 64"><metadata id="metadata3721"/><path id="path3711" fill="none" d="M 0,40 H 24 V 64 H 0 Z"/><path id="path3713" stroke-width="2.836" d="M 54.707547,30.956873 H 50.433962 V 19.668464 c 0,-3.104313 -2.564151,-5.644205 -5.698113,-5.644205 H 33.339623 V 9.7911052 c 0,-3.8945014 -3.190944,-7.0552561 -7.122642,-7.0552561 -3.931698,0 -7.122641,3.1607547 -7.122641,7.0552561 V 14.024259 H 7.6981132 c -3.1339623,0 -5.6696226,2.539892 -5.6696226,5.644205 v 10.723989 h 4.2450943 c 4.2450941,0 7.6924531,3.414744 7.6924531,7.619676 0,4.204933 -3.447359,7.619677 -7.6924531,7.619677 H 2 V 56.355795 C 2,59.460108 4.5641509,62 7.6981132,62 H 18.524528 v -4.233154 c 0,-4.204932 3.447359,-7.619676 7.692453,-7.619676 4.245094,0 7.692453,3.414744 7.692453,7.619676 V 62 h 10.826415 c 3.133962,0 5.698113,-2.539892 5.698113,-5.644205 v -11.28841 h 4.273585 c 3.931698,0 7.122642,-3.160754 7.122642,-7.055256 0,-3.894501 -3.190944,-7.055256 -7.122642,-7.055256 z"/></svg>