<?xml version="1.0" encoding="UTF-8" standalone="no"?>
<svg
   xmlns:dc="http://purl.org/dc/elements/1.1/"
   xmlns:cc="http://creativecommons.org/ns#"
   xmlns:rdf="http://www.w3.org/1999/02/22-rdf-syntax-ns#"
   xmlns:svg="http://www.w3.org/2000/svg"
   xmlns="http://www.w3.org/2000/svg"
   xmlns:sodipodi="http://sodipodi.sourceforge.net/DTD/sodipodi-0.dtd"
   xmlns:inkscape="http://www.inkscape.org/namespaces/inkscape"
   height="128"
   viewBox="0 0 64 64"
   width="128"
   version="1.1"
   id="svg3715"
   sodipodi:docname="logo_white.svg"
   style="fill:#ffffff"
   inkscape:version="0.92.2 (5c3e80d, 2017-08-06)">
  <metadata
     id="metadata3721">
    <rdf:RDF>
      <cc:Work
         rdf:about="">
        <dc:format>image/svg+xml</dc:format>
        <dc:type
           rdf:resource="http://purl.org/dc/dcmitype/StillImage" />
        <dc:title></dc:title>
      </cc:Work>
    </rdf:RDF>
  </metadata>
  <defs
     id="defs3719" />
  <sodipodi:namedview
     pagecolor="#ffffff"
     bordercolor="#666666"
     borderopacity="1"
     objecttolerance="10"
     gridtolerance="10"
     guidetolerance="10"
     inkscape:pageopacity="0"
     inkscape:pageshadow="2"
     inkscape:window-width="1827"
     inkscape:window-height="1051"
     id="namedview3717"
     showgrid="false"
     scale-x="0.5"
     inkscape:pagecheckerboard="true"
     inkscape:zoom="4.4166667"
     inkscape:cx="32.400637"
     inkscape:cy="82.646126"
     inkscape:window-x="84"
     inkscape:window-y="-9"
     inkscape:window-maximized="1"
     inkscape:current-layer="svg3715" />
  <path
     d="M 0,40 H 24 V 64 H 0 Z"
     id="path3711"
     inkscape:connector-curvature="0"
     style="fill:none" />
  <path
     d="M 54.707547,30.956873 H 50.433962 V 19.668464 c 0,-3.104313 -2.564151,-5.644205 -5.698113,-5.644205 H 33.339623 V 9.7911052 c 0,-3.8945014 -3.190944,-7.0552561 -7.122642,-7.0552561 -3.931698,0 -7.122641,3.1607547 -7.122641,7.0552561 V 14.024259 H 7.6981132 c -3.1339623,0 -5.6696226,2.539892 -5.6696226,5.644205 v 10.723989 h 4.2450943 c 4.2450941,0 7.6924531,3.414744 7.6924531,7.619676 0,4.204933 -3.447359,7.619677 -7.6924531,7.619677 H 2 V 56.355795 C 2,59.460108 4.5641509,62 7.6981132,62 H 18.524528 v -4.233154 c 0,-4.204932 3.447359,-7.619676 7.692453,-7.619676 4.245094,0 7.692453,3.414744 7.692453,7.619676 V 62 h 10.826415 c 3.133962,0 5.698113,-2.539892 5.698113,-5.644205 v -11.28841 h 4.273585 c 3.931698,0 7.122642,-3.160754 7.122642,-7.055256 0,-3.894501 -3.190944,-7.055256 -7.122642,-7.055256 z"
     id="path3713"
     inkscape:connector-curvature="0"
     style="stroke-width:2.83554745" />
</svg>
